<?xml version="1.0" encoding="UTF-8" standalone="no"?>
<svg
   width="100px"
   height="100px"
   viewBox="0 0 100 100"
   version="1.1"
   id="svg18"
   sodipodi:docname="icon.svg"
   inkscape:version="1.1.2 (0a00cf5339, 2022-02-04)"
   xmlns:inkscape="http://www.inkscape.org/namespaces/inkscape"
   xmlns:sodipodi="http://sodipodi.sourceforge.net/DTD/sodipodi-0.dtd"
   xmlns:xlink="http://www.w3.org/1999/xlink"
   xmlns="http://www.w3.org/2000/svg"
   xmlns:svg="http://www.w3.org/2000/svg"
   xmlns:rdf="http://www.w3.org/1999/02/22-rdf-syntax-ns#"
   xmlns:cc="http://creativecommons.org/ns#"
   xmlns:dc="http://purl.org/dc/elements/1.1/">
  <metadata
     id="metadata22">
    <rdf:RDF>
      <cc:Work
         rdf:about="">
        <dc:format>image/svg+xml</dc:format>
        <dc:type
           rdf:resource="http://purl.org/dc/dcmitype/StillImage" />
        <dc:title>eclispe-che</dc:title>
      </cc:Work>
    </rdf:RDF>
  </metadata>
  <sodipodi:namedview
     pagecolor="#ffffff"
     bordercolor="#666666"
     borderopacity="1"
     objecttolerance="10"
     gridtolerance="10"
     guidetolerance="10"
     inkscape:pageopacity="0"
     inkscape:pageshadow="2"
     inkscape:window-width="1920"
     inkscape:window-height="1043"
     id="namedview20"
     showgrid="false"
     inkscape:pagecheckerboard="true"
     inkscape:zoom="5.6568543"
     inkscape:cx="30.052038"
     inkscape:cy="59.396969"
     inkscape:window-x="1920"
     inkscape:window-y="0"
     inkscape:window-maximized="1"
     inkscape:current-layer="layer1" />
  <!-- Generator: Sketch 45.2 (43514) - http://www.bohemiancoding.com/sketch -->
  <title
     id="title2">eclispe-che</title>
  <desc
     id="desc4">Created with Sketch.</desc>
  <defs
     id="defs7">
    <path
       d="M50.0004412,4.04252804e-14 C22.3871247,4.04252804e-14 0,22.3848726 0,49.9995588 C0,77.6133626 22.3871247,100 50.0004412,100 C77.6137577,100 100,77.6133626 100,49.9995588 C100,22.3848726 77.6128753,3.55271368e-14 50.0004412,4.04252804e-14 Z"
       id="path-1" />
  </defs>
  <g
     inkscape:groupmode="layer"
     id="layer1"
     inkscape:label="BACKGROUND">
    <g
       style="fill:#add8e6;fill-opacity:1;fill-rule:evenodd;stroke:none;stroke-width:1;stroke-opacity:1"
       id="Page-1">
      <g
         id="eclispe-che"
         style="fill:#add8e6;fill-opacity:1;stroke:none;stroke-opacity:1">
        <g
           id="path3023-path"
           style="fill:#add8e6;fill-opacity:1;stroke:none;stroke-opacity:1">
          <use
             xlink:href="#path-1"
             id="use9"
             style="fill:#add8e6;fill-opacity:1;fill-rule:evenodd;stroke:none;stroke-opacity:1"
             x="0"
             y="0"
             width="100%"
             height="100%" />
          <path
             d="M 50.000441,0.5 C 22.662621,0.5 0.5,22.661661 0.5,49.999559 0.5,77.337051 22.663098,99.5 50.000441,99.5 77.337613,99.5 99.5,77.337222 99.5,49.999559 99.5,22.661796 77.337514,0.5 50.000441,0.5 Z"
             id="path11"
             style="fill:#add8e6;fill-opacity:1;stroke:none;stroke-width:1;stroke-opacity:1"
             inkscape:connector-curvature="0" />
        </g>
      </g>
    </g>
    <path
       style="fill:#ffffff;stroke-width:0.22704"
       d="m 20.917586,67.001801 c 0,-0.30096 3.380376,-0.34056 29.06112,-0.34056 25.680744,0 29.06112,0.0396 29.06112,0.34056 0,0.30096 -3.380376,0.34056 -29.06112,0.34056 -25.680744,0 -29.06112,-0.0396 -29.06112,-0.34056 z m 0,-1.81632 c 0,-0.30096 3.380376,-0.34056 29.06112,-0.34056 25.680744,0 29.06112,0.0396 29.06112,0.34056 0,0.30096 -3.380376,0.34056 -29.06112,0.34056 -25.680744,0 -29.06112,-0.0396 -29.06112,-0.34056 z m 0,-1.81632 c 0,-0.30096 3.380376,-0.34056 29.06112,-0.34056 25.680744,0 29.06112,0.0396 29.06112,0.34056 0,0.30096 -3.380376,0.34056 -29.06112,0.34056 -25.680744,0 -29.06112,-0.0396 -29.06112,-0.34056 z m -5.414544,-2.10012 c -1.884408,-1.876116 -2.407776,-2.74608 -2.755728,-4.580796 -0.91572,-4.828368 3.892704,-9.418284 13.136664,-12.53988 2.087232,-0.70488 5.310384,-1.579188 6.909768,-1.874424 7.327248,-1.352592 9.769992,-1.582056 16.989888,-1.59588 l 6.729624,-0.0132 1.289904,-2.406552 c 2.350152,-4.38462 4.210848,-5.855424 7.040808,-5.56548 1.699176,0.17412 3.757728,0.75432 6.135936,1.729596 2.125128,0.87144 2.620464,1.223052 1.47576,1.04748 -6.336768,-0.97176 -8.02176,-0.76296 -10.3458,1.282788 -0.97368,0.85704 -3.560352,4.044648 -3.406776,4.198212 0.0372,0.0372 1.282608,0.21816 2.766912,0.40152 6.844704,0.8454 12.762312,2.478804 17.683344,4.881144 6.723984,3.282492 9.517416,7.695108 7.635552,12.061356 -0.85032,1.972884 -3.73788,4.739232 -4.933296,4.726188 l -0.65892,-0.0072 0.68112,-0.4962 c 0.37464,-0.273 1.317288,-1.101 2.09484,-1.840032 3.567816,-3.39138 3.480744,-7.101216 -0.24732,-10.537668 -3.99324,-3.680832 -12.659688,-6.820008 -22.054032,-7.988436 -3.841728,-0.47784 -3.418536,-0.62016 -4.692264,1.57836 -0.61488,1.0614 -1.241088,1.915128 -1.391448,1.89714 -0.15048,-0.018 -1.499424,-0.36048 -2.997888,-0.76116 -2.379864,-0.63636 -3.169608,-0.73956 -6.2436,-0.81648 -3.300432,-0.0828 -3.600528,-0.054 -4.829088,0.45384 -0.72048,0.29796 -1.663272,0.81132 -2.095056,1.1406 -0.85632,0.65316 -1.885608,2.247096 -2.184744,3.38328 -0.12864,0.48888 -0.16224,0.1008 -0.1044,-1.210584 0.09,-2.056764 0.68172,-4.023888 1.537032,-5.111208 l 0.47832,-0.60804 -1.566048,0.15852 c -0.86136,0.0876 -2.916024,0.4494 -4.566024,0.80484 -8.288736,1.785516 -13.788024,4.184772 -17.079552,7.451532 -1.819968,1.806276 -2.34576,2.833092 -2.466816,4.817652 -0.0768,1.263396 0.002,1.693968 0.50736,2.762208 0.60336,1.275444 2.83008,3.60462 4.30704,4.505256 l 0.70392,0.42924 -0.85872,8.64e-4 c -0.76812,6.84e-4 -1.04508,-0.1848 -2.626032,-1.758708 z M 55.881746,41.804873 c 0,-0.25188 -0.80676,-0.31104 -4.257,-0.31224 -4.072536,-0.0017 -4.20288,0.012 -3.00828,0.31236 0.68676,0.17268 1.60632,0.37212 2.04336,0.44316 0.43704,0.0708 1.560888,0.3174 2.49744,0.54744 l 1.7028,0.41808 0.51084,-0.54912 c 0.28092,-0.30204 0.51084,-0.68892 0.51084,-0.8598 z m -34.11588,19.952976 c -0.0924,-0.0924 -0.16704,-2.90868 -0.16704,-6.259404 v -6.092244 h 5.97612 c 4.887936,0 6.170664,0.066 7.044552,0.36408 1.287192,0.4386 1.736928,1.16244 1.736928,2.795328 0,0.94596 -0.1176,1.272252 -0.69372,1.928748 l -0.69384,0.7902 0.6732,0.34812 c 0.86556,0.4476 1.513176,2.042244 1.317984,3.245112 -0.1812,1.11708 -0.77196,1.891644 -1.866936,2.448096 -0.81576,0.4146 -1.42692,0.46044 -7.02672,0.52668 -3.373248,0.0396 -6.208416,-0.0027 -6.30036,-0.0948 z m 9.610488,-3.27804 c 0.49092,-0.26268 0.5838,-1.11876 0.1668,-1.53588 -0.17664,-0.17664 -1.09488,-0.2724 -2.61096,-0.2724 h -2.338512 v 1.02168 1.02168 h 2.171808 c 1.19448,0 2.369424,-0.1056 2.61096,-0.23508 z m -0.696,-4.508916 c 0.44172,-0.12288 0.5676,-0.3066 0.5676,-0.82872 v -0.67092 l -2.32716,-0.0648 -2.32716,-0.0648 v 0.91608 0.91608 l 1.75956,-0.0228 c 0.9678,-0.012 2.014992,-0.0936 2.32716,-0.18048 z m 8.40048,1.678908 v -6.2436 h 2.38392 2.38392 v 6.2436 6.2436 h -2.38392 -2.38392 z m 7.651128,6.099672 c -0.0876,-0.0876 -0.15888,-2.906136 -0.15888,-6.264 v -6.105216 l 6.41388,0.0696 c 5.618904,0.0612 6.504864,0.12 7.14792,0.47088 0.91716,0.50124 1.461096,1.524804 1.459296,2.745948 -0.002,1.279896 -0.33996,2.063364 -1.14804,2.660844 l -0.68028,0.50304 0.54024,0.42492 c 0.5616,0.44184 0.97848,1.964424 1.00008,3.653316 0.0072,0.46944 0.1164,1.05024 0.2448,1.290552 0.12864,0.24036 0.234,0.49476 0.234,0.56544 0,0.2112 -5.18484,0.14508 -5.316456,-0.0684 -0.0672,-0.108 -0.1884,-0.79764 -0.2706,-1.53252 -0.21696,-1.941924 -0.45864,-2.130852 -2.725944,-2.130852 h -1.885464 l -0.066,1.87308 -0.066,1.87308 -2.281872,0.0636 c -1.255032,0.0348 -2.353344,-0.0072 -2.44068,-0.0948 z m 8.816568,-7.223292 c 0.58188,-0.24312 0.78732,-0.46824 0.78732,-0.86268 0,-0.91548 -0.40188,-1.07868 -2.656368,-1.07868 H 51.56801 v 1.1352 1.1352 h 1.596576 c 0.88056,0 1.949664,-0.14748 2.38392,-0.32904 z m 8.279664,1.12368 v -6.2436 h 4.905336 c 5.34396,0 6.870672,0.22644 8.51208,1.26264 2.811768,1.774992 3.2604,6.613284 0.84468,9.109344 -1.569888,1.622112 -3.8844,2.11104 -10.005096,2.1135 l -4.257,0.0018 z m 9.210576,2.505612 c 1.02876,-0.42984 1.550592,-1.599732 1.402224,-3.143712 -0.1848,-1.922604 -1.382352,-2.620176 -4.53948,-2.644092 l -1.30548,-0.0096 v 3.06504 3.06504 h 1.823616 c 1.08744,0 2.14476,-0.13416 2.61912,-0.3324 z"
       id="path1835" />
  </g>
  <g
     inkscape:groupmode="layer"
     id="layer2"
     inkscape:label="PLACE LOGO HERE" />
</svg>
